HIERARCHY
ROOT Hips
{
	OFFSET 0.000000 0.000000 0.000000
	CHANNELS 6 Xposition Yposition Zposition Zrotation Yrotation Xrotation 
	JOINT LowerBack
	{
		OFFSET 0.000000 0.000000 0.000000
		CHANNELS 3 Zrotation Yrotation Xrotation
		JOINT Spine
		{
			OFFSET 0.028270 2.035590 -0.193380
			CHANNELS 3 Zrotation Yrotation Xrotation
			JOINT Spine1
			{
				OFFSET 0.056720 2.048850 -0.042750
				CHANNELS 3 Zrotation Yrotation Xrotation
				JOINT Neck
				{
					OFFSET 0.000000 0.000000 0.000000
					CHANNELS 3 Zrotation Yrotation Xrotation
					JOINT Neck1
					{
						OFFSET -0.054170 1.746240 0.172020
						CHANNELS 3 Zrotation Yrotation Xrotation
						JOINT Head
						{
							OFFSET 0.104070 1.761360 -0.123970
							CHANNELS 3 Zrotation Yrotation Xrotation
							End Site
							{
								OFFSET 0.000000 0.000000 0.000000
							}
						}
					}
				}
				JOINT LeftShoulder
				{
					OFFSET 0.000000 0.000000 0.000000
					CHANNELS 3 Zrotation Yrotation Xrotation
					JOINT LeftArm
					{
						OFFSET 3.362410 1.200890 -0.311210
						CHANNELS 3 Zrotation Yrotation Xrotation
						JOINT LeftForeArm
						{
							OFFSET 4.983000 -0.000000 -0.000000
							CHANNELS 3 Zrotation Yrotation Xrotation
							JOINT LeftHand
							{
								OFFSET 3.483560 -0.000000 -0.000000
								CHANNELS 3 Zrotation Yrotation Xrotation
								JOINT LeftFingerBase
								{
									OFFSET 0.000000 0.000000 0.000000
									CHANNELS 3 Zrotation Yrotation Xrotation
									JOINT LeftHandIndex1
									{
										OFFSET 0.715260 -0.000000 -0.000000
										CHANNELS 3 Zrotation Yrotation Xrotation
										End Site
										{
											OFFSET 0.000000 0.000000 0.000000
										}
									}
								}
								JOINT LThumb
								{
									OFFSET 0.000000 0.000000 0.000000
									CHANNELS 3 Zrotation Yrotation Xrotation
									End Site
									{
										OFFSET 0.000000 0.000000 0.000000
									}
								}
							}
						}
					}
				}
				JOINT RightShoulder
				{
					OFFSET 0.000000 0.000000 0.000000
					CHANNELS 3 Zrotation Yrotation Xrotation
					JOINT RightArm
					{
						OFFSET -3.136600 1.374050 -0.404650
						CHANNELS 3 Zrotation Yrotation Xrotation
						JOINT RightForeArm
						{
							OFFSET -5.241900 -0.000000 -0.000000
							CHANNELS 3 Zrotation Yrotation Xrotation
							JOINT RightHand
							{
								OFFSET -3.444170 -0.000000 -0.000000
								CHANNELS 3 Zrotation Yrotation Xrotation
								JOINT RightFingerBase
								{
									OFFSET 0.000000 0.000000 0.000000
									CHANNELS 3 Zrotation Yrotation Xrotation
									JOINT RightHandIndex1
									{
										OFFSET -0.622530 -0.000000 -0.000000
										CHANNELS 3 Zrotation Yrotation Xrotation
										End Site
										{
											OFFSET 0.000000 0.000000 0.000000
										}
									}
								}
								JOINT RThumb
								{
									OFFSET 0.000000 0.000000 0.000000
									CHANNELS 3 Zrotation Yrotation Xrotation
									End Site
									{
										OFFSET 0.000000 0.000000 0.000000
									}
								}
							}
						}
					}
				}
			}
		}
	}
}
}
MOTION
Frames: 7
Frame Time: 0.008333
-1.760336 16.778475 -0.905628 -89.157613 88.740912 -77.461207 4.943791 -3.430534 -3.130814 0.170513 -3.987852 -3.497191 -7.561314 -4.054329 0.380310 9.964459 -6.385406 -7.087267 -4.668412 -0.360077 0.120517 0.000000 0.000000 0.000000 -5.601585 3.359878 1.957035 -62.776413 -9.647359 11.628131 -2.851615 -37.428265 -0.010530 5.517566 1.024153 0.045704 -0.098419 0.109977 0.000000 0.000000 0.000000 0.000000 0.000000 0.000000 0.000000 20.526842 -5.444405 1.404391 64.636460 -1.251942 -14.356335 4.030251 9.341921 0.005146 -1.300176 3.070059 -0.038181 0.109667 -0.051415 -0.000000 0.000000 0.000000 0.000000 0.000000 0.000000 0.000000 
-1.614484 16.795926 -0.904086 -100.505403 88.447821 -88.845120 5.260836 -3.388077 -3.064736 0.216236 -3.963673 -3.504068 -7.542141 -4.029465 0.361266 9.972363 -6.304705 -7.144170 -4.668782 -0.359779 0.106468 0.000000 0.000000 0.000000 -5.633749 3.530951 1.946376 -63.575132 -8.933588 11.506189 -2.826988 -36.672132 -0.010443 5.610880 1.102878 0.050546 -0.093812 0.105598 0.000000 0.000000 0.000000 0.000000 0.000000 0.000000 0.000000 20.507211 -5.303681 1.412823 64.725671 -0.785198 -14.102391 4.036018 9.399756 0.005170 -1.241602 3.072141 -0.036573 0.109241 -0.052529 -0.000000 0.000000 0.000000 0.000000 0.000000 0.000000 0.000000 
-1.471846 16.814227 -0.900652 -109.571800 88.093234 -97.928839 5.544683 -3.345575 -3.002840 0.257782 -3.937971 -3.509262 -7.530594 -4.004029 0.344939 10.012915 -6.237988 -7.201465 -4.668728 -0.359475 0.092372 0.000000 0.000000 0.000000 -5.615195 3.675127 1.941384 -64.355246 -8.236105 11.434978 -2.803252 -35.876422 -0.010313 5.671004 1.210392 0.056589 -0.089295 0.101207 0.000000 0.000000 0.000000 0.000000 0.000000 0.000000 0.000000 20.522150 -5.174403 1.421556 64.845750 -0.304416 -13.813189 4.036889 9.521344 0.005210 -1.165342 3.081647 -0.034665 0.108504 -0.053720 -0.000000 0.000000 0.000000 0.000000 0.000000 0.000000 0.000000 
-1.332557 16.833265 -0.895627 -117.229356 87.686481 -105.578548 5.791414 -3.305415 -2.951124 0.293695 -3.912871 -3.513870 -7.525942 -3.979830 0.332402 10.080329 -6.185207 -7.260385 -4.668378 -0.359164 0.077880 0.000000 0.000000 0.000000 -5.562923 3.798893 1.942862 -65.099473 -7.568664 11.435500 -2.782280 -35.052782 -0.010124 5.686499 1.346148 0.063737 -0.085011 0.096856 0.000000 0.000000 0.000000 0.000000 0.000000 0.000000 0.000000 20.567135 -5.056748 1.430322 64.992958 0.187190 -13.477068 4.032663 9.713727 0.005267 -1.079749 3.100470 -0.032456 0.107499 -0.054992 -0.000000 0.000000 0.000000 0.000000 0.000000 0.000000 0.000000 
-1.196503 16.852941 -0.889577 -123.895717 87.226315 -112.202359 6.005060 -3.267080 -2.920054 0.324497 -3.888613 -3.520623 -7.526907 -3.957028 0.321530 10.164816 -6.142389 -7.318643 -4.667598 -0.358870 0.063713 0.000000 0.000000 0.000000 -5.495656 3.894664 1.951381 -65.791761 -6.921067 11.516920 -2.764181 -34.226370 -0.009869 5.647749 1.511146 0.071689 -0.080973 0.092547 0.000000 0.000000 0.000000 0.000000 0.000000 0.000000 0.000000 20.629867 -4.946843 1.440195 65.167088 0.684265 -13.121050 4.023801 9.967063 0.005356 -0.987191 3.138694 -0.030245 0.106262 -0.056463 -0.000000 0.000000 0.000000 0.000000 0.000000 0.000000 0.000000 
-1.064045 16.873211 -0.882602 -129.829962 86.723471 -118.064176 6.173642 -3.230499 -2.902537 0.347369 -3.863798 -3.528294 -7.533078 -3.934132 0.311531 10.263359 -6.107601 -7.376706 -4.666986 -0.358608 0.049524 0.000000 0.000000 0.000000 -5.421810 3.966531 1.967524 -66.421151 -6.303425 11.687437 -2.750597 -33.406658 -0.009540 5.546168 1.700624 0.079846 -0.077265 0.088317 0.000000 0.000000 0.000000 0.000000 0.000000 0.000000 0.000000 20.710898 -4.842043 1.451726 65.362035 1.184419 -12.720305 4.009455 10.289379 0.005467 -0.898222 3.194030 -0.028232 0.104837 -0.058121 -0.000000 0.000000 0.000000 0.000000 0.000000 0.000000 0.000000 
-0.935072 16.894041 -0.875212 -135.139380 86.175332 -123.268876 6.303663 -3.194233 -2.900861 0.363536 -3.837586 -3.537677 -7.542993 -3.910245 0.301911 10.367560 -6.076167 -7.434700 -4.666429 -0.358358 0.035219 0.000000 0.000000 0.000000 -5.356278 4.022887 1.991169 -66.980255 -5.722609 11.956753 -2.742226 -32.603182 -0.009141 5.377915 1.910317 0.087508 -0.073930 0.084206 0.000000 0.000000 0.000000 0.000000 0.000000 0.000000 0.000000 20.800476 -4.736639 1.464789 65.573242 1.682298 -12.274746 3.990023 10.679988 0.005595 -0.818474 3.267956 -0.026518 0.103293 -0.059993 -0.000000 0.000000 0.000000 0.000000 0.000000 0.000000 0.000000 
